# xmcd
#
# Track frame offsets:
#	150
#	11735
#	23324
#	37362
#	50025
#	63912
#	75462
#	89022
#	101177
#	114177
#	126814
#	138109
#	149673
#	162594
#	174107
#	187066
#	198259
#	208847
#	219635
#	231618
#	243854
# 
# Disc length: 3401 seconds
# 
# Revision: 2
# Processed by: cddbd v1.4PL0 Copyright (c) Steve Scherf et al.
# Submitted via: Advanced CD Ripper Pro
#
DISCID=340d4715
DTITLE=Jim Reeves - Welcome To My World - Disc 01
DYEAR=1900
DGENRE=Country
TTITLE0=My Heart's Like A Welcome Mat (1949)
TTITLE1=Teardrops Of Regret (1949)
TTITLE2=Chicken Hearted (1950)
TTITLE3=I've Never Been So Blue (1950)
TTITLE4=What Were You Doing Last Night (1953)
TTITLE5=Wagon Load Of Love (1953)
TTITLE6=I Could Cry (1953)
TTITLE7=Mexican Joe (1953)
TTITLE8=Butterfly Love (1953)
TTITLE9=Let Me Love You Just A Little (1953)
TTITLE10=El Rancho Del Rio (1953)
TTITLE11=It's Hard To Just Love One (1953)
TTITLE12=Bimbo (1953)
TTITLE13=Gypsy Heart (1953)
TTITLE14=Echo Bonita (1953)
TTITLE15=Then I'll Stop Loving You (1954)
TTITLE16=Beatin' On A Ding Dong (1954)
TTITLE17=My Rambling Heart (1954)
TTITLE18=Padre Of Old San Antone (1954)
TTITLE19=Mother Went A-Walkin' (1954)
TTITLE20=I Love You (& Ginny Wright) (1953)
EXTD=
EXTT0=
EXTT1=
EXTT2=
EXTT3=
EXTT4=
EXTT5=
EXTT6=
EXTT7=
EXTT8=
EXTT9=
EXTT10=
EXTT11=
EXTT12=
EXTT13=
EXTT14=
EXTT15=
EXTT16=
EXTT17=
EXTT18=
EXTT19=
EXTT20=
PLAYORDER=
